<?xml version="1.0" encoding="utf-8"?>
<!-- Generator: Adobe Illustrator 16.0.0, SVG Export Plug-In . SVG Version: 6.00 Build 0)  -->
<!DOCTYPE svg PUBLIC "-//W3C//DTD SVG 1.1//EN" "http://www.w3.org/Graphics/SVG/1.1/DTD/svg11.dtd">
<svg version="1.1" id="Layer_1" xmlns="http://www.w3.org/2000/svg" xmlns:xlink="http://www.w3.org/1999/xlink" x="0px" y="0px"
   width="504.115px" height="344.597px" viewBox="0 0 504.115 344.597" enable-background="new 0 0 504.115 344.597"
   xml:space="preserve">
    <style type="text/css"><![CDATA[
      * {
        fill: #fff;
      }
    ]]></style>
<g>
  <path d="M322.615,114L322.615,114C322.615,113.25,322.615,114,322.615,114L322.615,114z"/>
  <path d="M322.615,116.25L322.615,116.25L322.615,116.25z"/>
  <path d="M322.615,117C322.615,117,323.365,116.25,322.615,117L322.615,117z"/>
  <path d="M321.865,111c-0.75,0.75,0,0.75,0,0.75c-0.75,0-0.75,1.5-1.5,1.5c0.75,0.75,0,0.75-0.75,1.5l0,0c0,0,0,0.75,0.75,0.75
    c-0.75,0-0.75,0-0.75,0c0.75,0,1.5-0.75,1.5-0.75v0.75c0.75-0.75,0.75-1.5,1.5-3C321.865,112.5,322.615,111.75,321.865,111
    L321.865,111z M320.365,114h0.75H320.365L320.365,114z M321.115,114c0,0,0-0.75,0.75-0.75C321.865,114,321.865,115.5,321.115,114
    L321.115,114z"/>
  <polygon points="321.115,121.5 321.115,121.5 321.115,121.5 320.365,121.5 321.115,121.5  "/>
  <path d="M321.865,119.25L321.865,119.25L321.865,119.25z"/>
  <path d="M321.115,120.75C321.115,120.75,320.365,120,321.115,120.75L321.115,120.75C321.115,120.75,320.365,121.5,321.115,120.75
    L321.115,120.75L321.115,120.75z"/>
  <path d="M324.865,110.25L324.865,110.25L324.865,110.25z"/>
  <path d="M328.615,100.5h-0.75C328.615,100.5,328.615,100.5,328.615,100.5L328.615,100.5z"/>
  <path d="M328.615,102.75c-0.75,0-0.75,0-0.75,0.75l0,0C327.865,103.5,328.615,103.5,328.615,102.75L328.615,102.75z"/>
  <path d="M320.365,121.5L320.365,121.5L320.365,121.5z"/>
  <path d="M327.865,87C327.115,87,327.865,86.25,327.865,87L327.865,87z"/>
  <path d="M324.865,106.5c0,0.75,0,0-0.75,0c0,0.75,0.75,0.75,0.75,0.75h-0.75c0,0.75,0,0.75,0,0.75s0,0,0,0.75l0.75-0.75
    c0,0-0.75,0,0,0C324.865,108,324.865,107.25,324.865,106.5L324.865,106.5z"/>
  <path d="M329.365,98.25c-0.75,0-0.75,0-0.75,0c-0.75,0-0.75,0-0.75,0c0,0.75,0,0.75,0,0.75C328.615,99,328.615,99,329.365,98.25
    L329.365,98.25z"/>
  <path d="M327.865,86.25c0,0,0,0,0,0.75C328.615,86.25,328.615,86.25,327.865,86.25L327.865,86.25z"/>
  <path d="M327.115,96C327.115,96,327.115,96.75,327.115,96L327.115,96z"/>
  <path d="M319.615,116.25C319.615,117,319.615,116.25,319.615,116.25L319.615,116.25z"/>
  <path d="M319.615,102c0.75,0.75-0.75,0.75,0,1.5c0-0.75,0-0.75,0.75-0.75C319.615,102.75,320.365,102,319.615,102L319.615,102z"/>
  <path d="M320.365,111.75c-0.75,0-0.75,0.75-1.5,1.5l0,0c0.75,0,0.75,0,0.75,0.75C320.365,113.25,321.115,111.75,320.365,111.75
    L320.365,111.75z"/>
  <path d="M320.365,113.25C320.365,114,321.115,114,320.365,113.25L320.365,113.25z"/>
  <path d="M319.615,114.75c-0.75,0-0.75,0.75-0.75,0.75C318.865,114.75,319.615,114.75,319.615,114.75h-0.75c0,0.75,0,0.75,0,0.75
    l0,0l0,0l0,0c0,0.75,0,0.75,0,0.75C319.615,115.5,318.865,115.5,319.615,114.75L319.615,114.75z"/>
  <polygon points="321.115,120 321.115,120 321.115,120 321.115,120 321.115,120  "/>
  <path d="M320.365,104.25L320.365,104.25L320.365,104.25z"/>
  <path d="M320.365,105L320.365,105L320.365,105z"/>
  <path d="M320.365,108.75C319.615,109.5,320.365,108.75,320.365,108.75L320.365,108.75z"/>
  <polygon points="319.615,124.5 319.615,124.5 319.615,124.5  "/>
  <polygon points="320.365,120 320.365,120 320.365,120  "/>
  <path d="M320.365,116.25l-0.75,0.75c0,0.75,0,0.75-0.75,1.5c0.75,0,0.75,0,0.75,0.75c-0.75,0-0.75-0.75-0.75-0.75
    c0.75,0.75,0.75,0.75,0.75,0.75s0.75-0.75,0.75-1.5C320.365,117.75,321.115,116.25,320.365,116.25L320.365,116.25z"/>
  <path d="M320.365,96.75C320.365,97.5,321.115,96.75,320.365,96.75L320.365,96.75z"/>
  <path d="M320.365,97.5L320.365,97.5C319.615,98.25,320.365,96.75,320.365,97.5L320.365,97.5z"/>
  <polygon points="318.865,106.5 318.865,106.5 318.865,106.5 318.865,106.5 318.865,106.5  "/>
  <path d="M319.615,101.25c0,0,0,0,0.75,0c0-0.75,0-0.75,0-1.5c0,0.75,0.75,0,0.75,0c-0.75,0,0,0-0.75,0c0-0.75,1.5-1.5,0.75-2.25
    c-0.75,1.5-1.5,3-2.25,3.75l0,0c0,3,0,3,0,3l0.75-0.75C318.865,103.5,319.615,101.25,319.615,101.25L319.615,101.25z"/>
  <path d="M318.865,106.5c0-0.75,0-0.75,0-0.75l0,0l0,0C318.865,105.75,318.865,105.75,318.865,106.5L318.865,106.5z"/>
  <path d="M340.615,75c-0.75,0-0.75,0-1.5,0l0,0c0.75,0.75,0.75,0.75,0.75,0.75S339.865,75,340.615,75L340.615,75z"/>
  <path d="M323.365,93c0-0.75,0-0.75,0-0.75c0.75-2.25,2.25-3.75,3.75-5.25l0,0c0.75-0.75,2.25-2.25,2.25-3
    c0.75-0.75,0.75-0.75,0.75-0.75s0,0,0,0.75c0.75-0.75,0.75-1.5,1.5-1.5c0-0.75,0-0.75,0-0.75c1.5-2.25,3.75-3.75,6-5.25
    c0.75-0.75,0.75-0.75,1.5-0.75c-7.5,0.75-14.25,2.25-20.25,4.5c0,18.75,0,18.75,0,18.75c1.5-2.25,2.25-4.5,4.5-6.75
    C323.365,92.25,323.365,92.25,323.365,93L323.365,93z"/>
  <path d="M339.865,90C339.865,90,339.865,89.25,339.865,90L339.865,90L339.865,90z"/>
  <path d="M334.615,79.5C334.615,80.25,335.365,79.5,334.615,79.5L334.615,79.5z"/>
  <path d="M338.365,76.5C338.365,76.5,338.365,75.75,338.365,76.5L338.365,76.5z"/>
  <path d="M340.615,75.75c-0.75,0-0.75,0.75-1.5,0.75C339.865,76.5,339.865,75.75,340.615,75.75L340.615,75.75z"/>
  <path d="M335.365,91.5C334.615,91.5,335.365,91.5,335.365,91.5L335.365,91.5z"/>
  <path d="M342.115,81.75c0,0-0.75,0,0,0.75V81.75L342.115,81.75z"/>
  <path d="M349.615,75C350.365,75,349.615,75,349.615,75L349.615,75z"/>
  <path d="M349.615,78.75C348.865,78.75,350.365,78.75,349.615,78.75L349.615,78.75z"/>
  <path d="M354.865,77.25C354.865,77.25,354.115,77.25,354.865,77.25L354.865,77.25z"/>
  <path d="M333.865,80.25l0.75-0.75C333.865,79.5,333.865,79.5,333.865,80.25L333.865,80.25z"/>
  <path d="M341.365,87.75C340.615,88.5,342.115,87.75,341.365,87.75L341.365,87.75z"/>
  <path d="M327.115,87C327.115,87.75,327.115,87,327.115,87L327.115,87z"/>
  <path d="M340.615,82.5L340.615,82.5C340.615,82.5,340.615,83.25,340.615,82.5L340.615,82.5z"/>
  <path d="M341.365,82.5C341.365,81.75,341.365,82.5,341.365,82.5L341.365,82.5z"/>
  <path d="M325.615,105.75C325.615,106.5,326.365,105.75,325.615,105.75L325.615,105.75z"/>
  <path d="M325.615,105C325.615,105.75,325.615,105,325.615,105L325.615,105z"/>
  <path d="M327.115,101.25c0,0,0,0.75-0.75,0.75c0.75-0.75,0.75-0.75,0-1.5c-0.75,0.75-1.5,1.5-1.5,3c0.75,0,0.75,0,0.75,0v0.75
    c1.5,0,1.5-2.25,2.25-3H327.115z M325.615,102C325.615,102,325.615,102.75,325.615,102L325.615,102z M325.615,101.25
    C326.365,101.25,325.615,102,325.615,101.25L325.615,101.25z"/>
  <path d="M326.365,105c0,0,0,0,0-0.75V105L326.365,105z"/>
  <path d="M325.615,111L325.615,111L325.615,111z"/>
  <path d="M327.115,87.75C327.115,87.75,327.865,87,327.115,87.75L327.115,87.75z"/>
  <path d="M327.115,100.5L327.115,100.5L327.115,100.5z"/>
  <path d="M330.865,96v0.75C330.865,96.75,331.615,96,330.865,96L330.865,96z"/>
  <path d="M329.365,84L329.365,84L329.365,84z"/>
  <path d="M331.615,82.5C330.865,83.25,331.615,82.5,331.615,82.5L331.615,82.5z"/>
  <path d="M331.615,82.5L331.615,82.5L331.615,82.5z"/>
  <path d="M332.365,94.5c0,0,0.75,0,0.75-0.75L332.365,94.5z"/>
  <path d="M330.115,96l0.75-0.75C330.115,95.25,330.115,96,330.115,96L330.115,96z"/>
  <path d="M329.365,96.75c0,0,0.75,0,0-0.75C329.365,96.75,329.365,96.75,329.365,96.75L329.365,96.75z"/>
  <path d="M330.115,93.75c-0.75,0-0.75,0-0.75,0C329.365,94.5,329.365,94.5,330.115,93.75L330.115,93.75L330.115,93.75z"/>
  <path d="M325.615,91.5C324.865,92.25,325.615,92.25,325.615,91.5L325.615,91.5z"/>
  <path d="M349.615,78.75C349.615,78.75,349.615,78,349.615,78.75L349.615,78.75z"/>
  <path d="M351.115,81.75C351.115,82.5,351.865,81.75,351.115,81.75L351.115,81.75z"/>
  <path d="M359.365,75.75c0,0,0.75,0.75,0.75,0C360.115,75.75,360.115,75.75,359.365,75.75L359.365,75.75L359.365,75.75z"/>
  <path d="M360.865,78c0-0.75,0-0.75-0.75-0.75l0,0C360.115,77.25,360.865,77.25,360.865,78L360.865,78z"/>
  <polygon points="350.365,81 349.615,81 350.365,81 350.365,81 350.365,81   "/>
  <path d="M348.865,83.25C348.865,82.5,349.615,83.25,348.865,83.25L348.865,83.25z"/>
  <path d="M476.365,93c0.75,0,0.75,0,0.75-0.75c0,0-0.75,0-0.75-0.75c0,0,0,0-0.75,0C474.865,93,476.365,93,476.365,93L476.365,93z"
    />
  <path d="M455.365,81.75c0,0.75,0,1.5,0.75,0.75C456.115,82.5,456.115,81.75,455.365,81.75L455.365,81.75z"/>
  <path d="M463.615,90.75h-0.75C462.865,91.5,463.615,90.75,463.615,90.75L463.615,90.75z"/>
  <path d="M474.115,90h0.75c0,0-0.75,0-0.75-0.75l0,0C474.115,90,474.115,90,474.115,90L474.115,90z"/>
  <path d="M472.615,102.75C473.365,103.5,474.115,102.75,472.615,102.75L472.615,102.75z"/>
  <path d="M462.865,93L462.865,93C462.115,93,461.365,93.75,462.865,93L462.865,93z"/>
  <path d="M462.115,94.5C462.865,94.5,462.115,93.75,462.115,94.5L462.115,94.5z"/>
  <path d="M457.615,87C457.615,87,458.365,87,457.615,87L457.615,87z"/>
  <path d="M487.615,123.75c0.75,0,0.75,0,0.75-0.75s-0.75-0.75-0.75-1.5c0,0,0,0,0.75,0c-1.5-1.5-2.25-3.75-5.25-3
    c0-0.75,0-1.5-0.75-1.5c0-0.75,0.75-3-1.5-1.5c0-0.75-0.75,0-0.75-0.75c0.75-1.5-0.75-2.25-1.5-3.75c3,0,3.75,2.25,4.5,3
    c1.5,0,2.25,0.75,0.75,2.25c1.5,0,3,0.75,4.5,1.5c-0.75-1.5-0.75-3-1.5-4.5c0,0,0,0,0,0.75c-0.75-0.75-2.25-0.75-1.5-1.5
    c0.75,0,1.5,0,1.5,0v-0.75c-0.75-2.25-1.5-3.75-2.25-5.25c-1.5,0.75-0.75-0.75-0.75-1.5h-0.75c0,0,0-0.75-0.75-0.75
    c0-0.75,0.75,0,1.5,0l0,0c0-0.75,0-0.75,0-0.75c-0.75,0-1.5,0-1.5,0.75c-1.5-0.75,0-2.25-1.5-2.25c1.5-0.75,1.5-0.75,1.5-0.75
    c-0.75,0-0.75-1.5-1.5-2.25h0.75c-0.75-0.75-0.75-0.75-1.5-1.5c0.75,0,0.75,0,0,0.75c0,0,0-0.75-0.75-0.75
    c-1.5,1.5-1.5,1.5-1.5,1.5c0-0.75,0-0.75-0.75-0.75c0.75-0.75,1.5-0.75,1.5-1.5c-0.75,0-0.75-1.5-2.25-1.5
    c1.5-1.5-0.75-0.75-1.5-0.75c0.75-0.75,0.75-1.5,0-1.5c-0.75,0.75,0,0.75-0.75,1.5s-0.75,0-0.75,0c3.75-3.75-1.5-2.25-2.25-3.75
    c2.25-2.25,0.75-3-2.25-1.5c0-0.75,0-0.75,0-0.75c1.5-0.75,0.75-1.5,2.25-2.25h-0.75c0,0,0,0-0.75,0.75c0.75-0.75,0-1.5-1.5-1.5
    c0,0.75-0.75,0.75-0.75,0.75c0-1.5-0.75-2.25-2.25-3.75c0,0-0.75,0-0.75,0.75c0-0.75,0.75-0.75,0.75-1.5h-0.75l0,0l0,0
    c-3.75-2.25-7.5-4.5-12-6c0.75,1.5,1.5,2.25,1.5,3c0.75,1.5,3,1.5,3,3c0,0.75-0.75,1.5,0.75,1.5c0,0.75,0.75,2.25,1.5,2.25
    c-0.75,1.5,1.5,1.5,2.25,2.25c0,0.75-0.75,1.5,0,2.25l0.75-0.75c0.75,0.75,0,1.5,2.25,0.75c-2.25,2.25-0.75,3,0.75,3
    c0.75,0.75,0,0.75,0,1.5c1.5-0.75,0.75,3,2.25,0.75c-0.75,3,3,2.25,3.75,3.75c0,0,0.75,0,1.5-0.75c0,0.75-0.75,1.5-0.75,1.5
    c-0.75,0.75,0,0-0.75,0.75c0,0,0.75-0.75,0.75,0s0,0-0.75,0.75c1.5,0,1.5,2.25,3,0.75c-0.75,1.5,0,3,1.5,3c0.75,0,0.75,0,1.5-0.75
    c0,0-0.75,0.75,0,0.75c-0.75,0.75-0.75,0-1.5,0.75c0.75,0,0.75,0,0,0.75c0.75,0,0.75,0.75,1.5,1.5l0.75-0.75c0,0.75,1.5,0,1.5,0.75
    c-2.25,1.5-2.25,0.75-4.5,2.25c1.5-2.25-0.75-2.25-1.5-3.75c0,0-1.5,0.75-1.5,0c0.75-0.75,0.75-0.75,0.75-0.75c0-0.75,0-0.75-1.5,0
    c1.5-2.25,0-3-2.25-2.25c1.5-3-1.5-2.25-3-3c1.5-0.75,1.5-0.75,1.5-0.75c-0.75,0,0-1.5-1.5,0c0.75-1.5-0.75-0.75-1.5-0.75
    c0-0.75,1.5-1.5,0.75-2.25c0,0-0.75,0-1.5,0.75c-6-7.5-9.75-15.75-16.5-23.25l-0.75-0.75c-11.25-3-24.75-4.5-41.25-4.5
    s-32.25,1.5-47.25,3l0,0l0,0c-0.75,0.75-0.75,0.75-1.5,0.75c0.75,0,1.5,0,2.25,0.75c1.5,0.75,3,1.5,3.75,2.25c0,0,0.75,0,1.5,1.5
    c0.75,0.75,1.5,1.5,1.5,2.25l0,0c0,0.75,0.75,1.5,0,2.25c1.5,0.75,1.5,1.5,1.5,3.75c0-1.5-0.75-1.5-1.5-2.25
    c0,0,0.75,0.75,0.75,1.5c-0.75-0.75-0.75-0.75-0.75-2.25c-0.75,0-0.75,0.75-0.75,0.75c0-0.75-0.75-1.5-0.75-2.25
    c-0.75-0.75-1.5-1.5-2.25-3c0,0.75,0.75,1.5,0.75,2.25c0.75,0.75,1.5,1.5,0.75,2.25c0-1.5-0.75-2.25-1.5-3s-1.5-1.5-2.25-2.25
    l0.75,0.75c-0.75-0.75-3-2.25-4.5-2.25c0.75,0.75,2.25,1.5,3.75,2.25c1.5,1.5,2.25,3,2.25,3.75l-0.75-1.5
    c-0.75,0-0.75-0.75-1.5-1.5c-0.75,0,0.75,1.5,0,1.5c-0.75-1.5-2.25-2.25-4.5-3c0.75,0.75,1.5,0.75,2.25,1.5
    c-2.25-0.75-5.25-1.5-7.5-0.75c0.75,0,1.5,0,0.75,0.75c0.75,0,1.5-0.75,0.75,0c1.5,0,2.25,0,3.75,0.75c-1.5-0.75-3-0.75-4.5-0.75
    c-0.75,0-1.5,0.75-3,0.75c-1.5,0.75-3,0.75-4.5,1.5c0,0.75,0.75,0.75,0.75,0c1.5,0,3.75-0.75,6-1.5c0.75,0,2.25,0,3,0.75
    c1.5,0,2.25,0.75,3,1.5c-0.75,0-0.75-0.75-1.5-0.75c0,0,0.75,0.75,1.5,0.75c-0.75,0-1.5-0.75-2.25-0.75s-2.25,0-3,0
    c0.75,0,1.5,0,2.25,0.75c0.75,0,1.5,0,1.5,0.75c-0.75,0-0.75,0-0.75,0l0,0c-1.5,0-2.25,0.75-3.75,0.75
    c-0.75,0.75-1.5,0.75-2.25,0.75s-0.75,0.75-0.75,0.75c-0.75,0-0.75,0.75-1.5,0.75c0.75,0-1.5,0.75-1.5,0.75
    c0,0.75-0.75,0.75-1.5,0.75v0.75c-0.75,0.75-1.5,0.75-1.5,0.75c0,0.75,0,0.75,0,0.75l0,0c-2.25,3-6,5.25-6.75,8.25c0,0.75,0,0,0,0
    c-0.75,0.75,0,0.75,0,0.75c-0.75,0-0.75,0-0.75,0c0,0.75-0.75,0.75,0,0.75c-0.75,0.75-0.75,0-0.75,0c0,0.75,0,0.75,0,0.75
    c-0.75,0.75,0,0-0.75,0c0,0.75,0.75,0.75,0,1.5v-0.75l0,0c-0.75,0-0.75,0.75-0.75,1.5h-0.75c0,0,0,0,0,0.75c0,0,0,0,0.75,0
    c-0.75,0,0,0.75-0.75,0.75c0-0.75,0,0-0.75,0c-0.75,0.75-2.25,2.25-1.5,3.75c0,0.75,0,0.75-0.75,0.75c0,0,0.75,0,0-0.75
    c0,0-0.75,0-0.75,0.75c0.75,1.5-0.75,3-0.75,4.5c0-0.75,0,0,0,0h-0.75c0,0,0,0.75-0.75,0c0.75,0.75,0,2.25,0,2.25v0.75
    c0,0-0.75,0-0.75,0.75c-0.75,0.75,0,2.25-1.5,3c0,0,0,0,0,0.75l0,0l0,0c-0.75,0-0.75,0.75-0.75,0.75c0,0.75,0,2.25-0.75,1.5
    c0,0.75-0.75,1.5,0,2.25c-0.75-0.75,0,0.75-0.75,0.75c0,0,0.75,0,0.75,0.75c-0.75,0-0.75-0.75-0.75-0.75c0,0.75-0.75,0.75,0,0.75
    c0,0.75,0,0.75-0.75,0.75c0,0,0,0,0,0.75c0,6,0,6,0,6c10.5-2.25,22.5-4.5,34.5-6.75c12.75-1.5,25.5-2.25,37.5-2.25
    c11.25,0,19.5,1.5,23.25,4.5s5.25,7.5,5.25,13.5c-37.5,0-66,4.5-84,15c-18,9.75-27.75,24.751-27.75,44.251
    c0,15.75,5.25,27.75,15.75,36c9.75,8.25,24,12,42,12c7.5,0,14.25-0.75,19.5-2.25c6-2.25,11.25-3.75,15.75-6.75
    c4.5-2.25,8.25-5.25,11.25-8.25s6-5.25,7.5-8.25c0,21.75,0,21.75,0,21.75c84.75,0,84.75,0,84.75,0c0-51,0-51,0-51
    c-13.5,0-13.5,0-13.5,0c0-51.001,0-51.001,0-51.001c0-6.75-0.75-13.5-1.5-19.5c0,0-0.75,0-1.5,0
    C487.615,124.5,488.365,123.75,487.615,123.75L487.615,123.75z M465.865,93L465.865,93L465.865,93z M468.115,95.25L468.115,95.25
    L468.115,95.25z M469.615,93.75C468.865,93.75,469.615,93.75,469.615,93.75L469.615,93.75z M471.115,96L471.115,96L471.115,96z
     M471.115,96.75C471.115,96,471.865,96.75,471.115,96.75L471.115,96.75z M471.865,96.75C473.365,96,471.865,97.5,471.865,96.75
    L471.865,96.75z M472.615,99.75C473.365,99,471.865,100.5,472.615,99.75L472.615,99.75z M473.365,99c0-0.75,0-0.75,0-0.75
    c0-0.75,0,0,0.75-0.75C474.115,98.25,474.115,98.25,473.365,99L473.365,99z M473.365,99c0,0,1.5-1.5,1.5-0.75
    C474.115,99,474.115,99,473.365,99L473.365,99z M474.865,99.75L474.865,99.75c0-0.75,0-0.75,0-0.75
    C474.865,99.75,474.865,99.75,474.865,99.75L474.865,99.75z M365.365,78C364.615,78,365.365,78,365.365,78L365.365,78z
     M365.365,80.25c0.75,0,0.75,0.75,0.75,1.5C365.365,81,365.365,80.25,365.365,80.25L365.365,80.25z M361.615,80.25
    c0-0.75,0-0.75,0-0.75C362.365,80.25,361.615,80.25,361.615,80.25L361.615,80.25z M321.115,123
    C321.115,122.25,321.115,123,321.115,123L321.115,123L321.115,123z M322.615,119.25L322.615,119.25
    C322.615,118.5,322.615,119.25,322.615,119.25L322.615,119.25z M322.615,118.5C322.615,117.75,322.615,118.5,322.615,118.5
    L322.615,118.5z M324.865,114.75C324.865,114,324.865,114.75,324.865,114.75L324.865,114.75L324.865,114.75z M326.365,108
    C327.115,108,326.365,108.75,326.365,108L326.365,108z M328.615,106.5C328.615,105.75,327.865,106.5,328.615,106.5L328.615,106.5z
     M329.365,105.75C329.365,105.75,328.615,105.75,329.365,105.75L329.365,105.75z M329.365,105C328.615,105,329.365,105,329.365,105
    L329.365,105L329.365,105z M329.365,103.5L329.365,103.5L329.365,103.5z M329.365,103.5L329.365,103.5L329.365,103.5z
     M329.365,104.25c0.75,0,0.75-0.75,0.75-0.75L329.365,104.25L329.365,104.25z M334.615,120.75c-1.5,0.75-3.75,0-3.75-1.5
    c0.75-3.75,5.25-3,4.5,0C334.615,119.25,334.615,120,334.615,120.75L334.615,120.75z M342.115,87.75L342.115,87.75L342.115,87.75
    L342.115,87.75z M342.865,87L342.865,87L342.865,87z M354.115,82.5h0.75H354.115L354.115,82.5z M357.115,78.75
    C357.865,79.5,356.365,78.75,357.115,78.75L357.115,78.75z M360.115,80.25C360.115,81,359.365,80.25,360.115,80.25L360.115,80.25z
     M362.365,82.5C362.365,83.25,361.615,81.75,362.365,82.5L362.365,82.5z M364.615,82.5C364.615,82.5,363.865,82.5,364.615,82.5
    L364.615,82.5z M365.365,84C365.365,84.75,364.615,83.25,365.365,84L365.365,84z M365.365,84.75c0.75,0,0.75,0,0.75,0v0.75
    C366.115,85.5,366.115,85.5,365.365,84.75L365.365,84.75z M366.115,86.25C366.115,86.25,365.365,85.5,366.115,86.25L366.115,86.25z
     M366.115,87.75C366.115,88.5,366.115,87,366.115,87.75L366.115,87.75z M366.865,84.75C367.615,85.5,366.865,84,366.865,84.75
    L366.865,84.75z M419.365,174.751c0,13.5-6,20.25-18.75,20.25c-11.25,0-17.25-3.75-17.25-9.75c0-4.5,3-7.5,8.25-9.75
    c6-1.5,15-2.25,27.75-2.25V174.751z M463.615,98.25C463.615,97.5,464.365,98.25,463.615,98.25L463.615,98.25z M468.115,102
    L468.115,102c0-0.75,0,0,0.75,0H468.115L468.115,102z M469.615,103.5C468.865,103.5,470.365,102.75,469.615,103.5L469.615,103.5z
     M485.365,112.5C485.365,111.75,486.115,112.5,485.365,112.5L485.365,112.5z M485.365,111.75c-1.5,0.75-1.5-0.75-2.25-0.75
    C484.615,110.25,484.615,111,485.365,111.75L485.365,111.75z M480.115,101.25c-0.75,0.75,0,0-0.75,0
    C480.115,100.5,480.115,101.25,480.115,101.25L480.115,101.25z M479.365,100.5L479.365,100.5
    C480.115,99.75,480.115,100.5,479.365,100.5L479.365,100.5z M476.365,96c0.75-0.75,0.75,0,0,0.75V96L476.365,96z M476.365,97.5
    C477.115,96.75,477.115,98.25,476.365,97.5L476.365,97.5z M475.615,100.5c0.75-0.75,0.75,0,0,0.75V100.5z M475.615,101.25
    C475.615,101.25,476.365,101.25,475.615,101.25L475.615,101.25z M475.615,104.25c0.75,0,0.75,0,0.75,0S475.615,105,475.615,104.25
    L475.615,104.25z M475.615,102c0.75-0.75,1.5-0.75,2.25-0.75C477.865,102,475.615,102,475.615,102L475.615,102z M477.115,103.5
    c0.75-0.75,0.75-0.75,0.75-0.75c0.75-0.75,1.5,0,0.75,0.75C477.865,103.5,477.115,103.5,477.115,103.5L477.115,103.5z
     M477.865,104.25c0.75-0.75,1.5,0,2.25,0C478.615,105.75,478.615,104.25,477.865,104.25L477.865,104.25z M479.365,106.5
    c0,0,0-0.75,0.75-1.5c1.5-0.75,0.75,1.5,1.5,1.5C479.365,108,480.865,105.75,479.365,106.5L479.365,106.5z M479.365,108.75
    C480.115,108.75,479.365,108.75,479.365,108.75L479.365,108.75z M477.865,109.5c0.75,0,1.5-0.75,1.5,0c0.75,0,2.25-0.75,3-1.5
    c-0.75,0-2.25,0-1.5-0.75s0.75-0.75,0.75-0.75c0.75,0.75,2.25,1.5,1.5,3c0-0.75-0.75-0.75-1.5-0.75c-0.75,0.75-0.75,0.75-1.5,1.5
    c0,0-1.5-0.75-1.5,0C477.865,111,477.865,109.5,477.865,109.5L477.865,109.5z M485.365,120c-0.75,0.75-0.75,0-0.75,0
    C485.365,119.25,486.115,120,485.365,120L485.365,120z M486.115,120.75C485.365,120.75,486.865,120,486.115,120.75L486.115,120.75z
     M486.115,121.5l0.75-0.75C486.865,121.5,486.865,120.75,486.115,121.5L486.115,121.5z"/>
  <path d="M484.615,105.75L484.615,105.75L484.615,105.75C483.865,106.5,484.615,105.75,484.615,105.75L484.615,105.75z"/>
  <path d="M486.865,118.5c0.75,0,0.75,0.75,1.5,0.75l0,0c0-0.75,0-0.75,0-1.5C487.615,117.75,487.615,117.75,486.865,118.5
    L486.865,118.5z"/>
  <path d="M488.365,120L488.365,120C487.615,120.75,488.365,120.75,488.365,120L488.365,120z"/>
  <path d="M464.365,96c0-0.75,0-0.75,0-0.75c-0.75,0.75-0.75,0.75-0.75,0.75S463.615,96,464.365,96L464.365,96z"/>
  <path d="M463.615,96.75C463.615,97.5,465.115,96,463.615,96.75L463.615,96.75z"/>
  <path d="M471.115,87h0.75C471.865,87,471.865,87,471.115,87L471.115,87L471.115,87z"/>
  <path d="M488.365,120.75c0.75,0,0.75,0,0.75,0H488.365L488.365,120.75L488.365,120.75z"/>
  <path d="M350.365,83.25C349.615,83.25,350.365,83.25,350.365,83.25L350.365,83.25z"/>
  <path d="M358.615,76.5c0.75,0.75,0.75,0.75,0.75,0.75S359.365,76.5,358.615,76.5L358.615,76.5z"/>
  <path d="M348.115,83.25c-0.75,0-0.75,0-0.75,0.75L348.115,83.25L348.115,83.25z"/>
  <path d="M364.615,79.5C364.615,79.5,364.615,80.25,364.615,79.5L364.615,79.5z"/>
  <path d="M364.615,81.75C364.615,81,364.615,81.75,364.615,81.75L364.615,81.75z"/>
  <path d="M364.615,78.75L364.615,78.75L364.615,78.75z"/>
  <path d="M365.365,82.5L365.365,82.5L365.365,82.5z"/>
  <path d="M362.365,77.25L362.365,77.25L362.365,77.25z"/>
  <path d="M363.115,79.5c0,0,0-0.75-0.75-0.75C363.115,79.5,363.115,80.25,363.115,79.5L363.115,79.5L363.115,79.5z"/>
  <path d="M361.615,77.25C360.865,76.5,362.365,78.75,361.615,77.25L361.615,77.25z"/>
  <path d="M364.615,80.25L364.615,80.25V81C364.615,80.25,364.615,80.25,364.615,80.25L364.615,80.25z"/>
  <path d="M363.865,81L363.865,81C364.615,81.75,363.865,81,363.865,81L363.865,81z"/>
  <path d="M322.615,109.5c-0.75,0-0.75,0.75,0,1.5c0,0,0,0,0-0.75c0,0-0.75,0,0,0l0,0C322.615,109.5,322.615,108.75,322.615,109.5
    L322.615,109.5z"/>
  <path d="M323.365,103.5C323.365,103.5,323.365,102.75,323.365,103.5L323.365,103.5z"/>
  <path d="M323.365,95.25C323.365,95.25,323.365,96,323.365,95.25C323.365,95.25,324.115,95.25,323.365,95.25L323.365,95.25z"/>
  <rect x="323.365" y="107.25" width="0" height="0.75"/>
  <path d="M323.365,102L323.365,102L323.365,102z"/>
  <path d="M324.115,105c0,0,0,0,0.75,0c-0.75-0.75-0.75,0-0.75-0.75c-1.5,1.5-1.5,2.25-0.75,3c-0.75-0.75,0-0.75,0.75-1.5
    C323.365,105.75,324.115,105.75,324.115,105L324.115,105z"/>
  <polygon points="323.365,92.25 324.115,92.25 323.365,92.25  "/>
  <path d="M323.365,109.5c0.75,0,0.75,0,0.75-0.75C323.365,109.5,323.365,109.5,323.365,109.5L323.365,109.5z"/>
  <path d="M324.115,108C324.115,108,324.115,108.75,324.115,108L324.115,108z"/>
  <path d="M324.115,105C324.115,105.75,324.865,105,324.115,105L324.115,105z"/>
  <rect x="318.865" y="122.25" width="0" height="0"/>
  <path d="M324.115,94.5c-0.75-0.75-0.75-0.75-0.75-0.75c0,0.75-0.75,1.5-0.75,1.5C323.365,95.25,323.365,94.5,324.115,94.5
    L324.115,94.5z"/>
  <path d="M323.365,107.25c-0.75,0-0.75,0-1.5,0c-0.75,0.75-1.5,2.25-0.75,3.75c0.75-0.75,0.75-1.5,1.5-2.25c0,0-0.75,0,0-0.75
    L323.365,107.25L323.365,107.25z"/>
  <path d="M318.865,120.75V120l0,0C318.865,120.75,318.865,120.75,318.865,120.75L318.865,120.75L318.865,120.75z"/>
  <path d="M323.365,93C322.615,93.75,323.365,93,323.365,93L323.365,93z"/>
  <polygon points="324.115,102.75 324.115,102.75 324.115,102.75   "/>
  <path d="M324.865,101.25L324.865,101.25L324.865,101.25z"/>
  <path d="M324.115,93.75c0.75-0.75,0.75-0.75,0.75-1.5C324.115,93,324.115,93,324.115,93.75L324.115,93.75z"/>
  <rect x="318.865" y="121.5" width="0" height="0"/>
  <path d="M462.865,79.5C462.115,79.5,462.865,79.5,462.865,79.5L462.865,79.5z"/>
  <path d="M483.865,95.25C483.865,95.25,484.615,95.25,483.865,95.25L483.865,95.25z"/>
</g>
<path d="M157.616,48c0,0,0,0,0,0.75C157.616,48.75,157.616,48.75,157.616,48L157.616,48z"/>
<path d="M157.616,47.25C157.616,46.5,157.616,47.25,157.616,47.25L157.616,47.25z"/>
<path d="M157.616,48L157.616,48L157.616,48z"/>
<path d="M180.116,122.25c0,45.75,0,45.75,0,45.75c16.5,0,16.5,0,16.5,0c0,2.25,0,2.25,0,2.25c0,9.001-1.5,15.001-5.25,18.751
  s-9,6-17.25,6c-7.5,0-13.5-2.25-17.25-6c-3-3.75-5.25-9.75-5.25-18.751c0-90,0-90,0-90c0-6.75,1.5-12,3-15.75
  c0-2.25,0.75-5.25,0.75-7.5c0,1.5,0,2.25,0,3l0,0c0-1.5,0.75-3.75,0-5.25c0.75-0.75,0.75-3,0.75-3.75c0,0,0-1.5,0-2.25
  c0.75,0,0.75,0,0.75,0c0-0.75,0-1.5,0-1.5c0-0.75,0-1.5,0-3c0,0.75,0.75,1.5,0.75,2.25c0,0,0-0.75,0-1.5c0,0.75,0,0.75,0,1.5l0,0
  c0,0.75,0,2.25,0,3.75c0.75,0,0-2.25,0.75-2.25c0,1.5,0,2.25,0,3.75V51c-0.75,0.75,0,1.5,0,2.25c0-0.75,0-3,0.75-4.5
  c0,0,0,0.75,0,1.5c0,0,0,0,0,0.75c0,0,0-0.75,0.75,0c-0.75,0.75-0.75,1.5-0.75,2.25c0.75,0,0.75,0,0.75-0.75c0,1.5,0,3,0,4.5v-0.75
  c0,0,0-0.75,0.75,0c-0.75-1.5,0-2.25,0-2.25c0,1.5,0,3-0.75,4.5c0.75,0,0.75,0,0.75,0c0-2.25,0.75-4.5,1.5-6c0,0-0.75,0.75,0,0.75
  c0,0,0,0,0-0.75c0,1.5-0.75,3,0,4.5c0-0.75,0-3.75,0.75-3.75c0,0.75,0,0.75,0,1.5V54c0,1.5,0,2.25,0,3c3-0.75,6.75-1.5,11.25-1.5
  c8.25,0,13.5,1.5,17.25,5.25s5.25,10.5,5.25,19.5c0,14.25,0,14.25,0,14.25c78,0,78,0,78,0c0-74.25,0-74.25,0-74.25
  c-5.25-2.25-10.5-4.5-16.5-6.75c-6.75-2.25-13.5-4.5-21.75-6.75c-8.25-1.5-17.25-3-27.75-4.5S186.866,0,174.116,0
  c-18,0-34.5,2.25-49.5,7.5c-15,4.5-27.75,11.25-38.25,21c-9.75,10.5-18,23.25-23.25,39c-6,15.75-9,35.25-9,57.75s3,42,9,57.751
  c5.25,15.75,13.5,28.5,24,38.25c10.5,10.5,22.5,17.25,37.5,21.75s31.5,6.75,50.25,6.75c12.75,0,24,0,33.75-1.5
  c10.5-1.5,19.5-3,27.75-4.5c8.25-2.25,15-4.5,21.75-6.75c6-2.25,11.25-4.5,16.5-6.75c0-62.251,0-62.251,0-62.251c15,0,15,0,15,0
  c0-45.75,0-45.75,0-45.75H180.116z M162.866,52.5v0.75C162.866,53.25,162.866,53.25,162.866,52.5L162.866,52.5z M159.866,52.5
  C159.866,51.75,159.866,52.5,159.866,52.5L159.866,52.5z M159.866,50.25C159.866,49.5,159.866,51,159.866,50.25L159.866,50.25z
   M159.116,48C159.116,47.25,159.116,48.75,159.116,48L159.116,48z M158.366,49.5L158.366,49.5L158.366,49.5L158.366,49.5z
   M157.616,47.25L157.616,47.25L157.616,47.25z M158.366,42C158.366,42,158.366,42.75,158.366,42L158.366,42z M157.616,45.75
  C158.366,45.75,157.616,46.5,157.616,45.75L157.616,45.75z M157.616,44.25C157.616,43.5,157.616,45,157.616,44.25L157.616,44.25z
   M157.616,44.25V45l0,0C157.616,45,157.616,45,157.616,44.25L157.616,44.25z M156.866,44.25C156.866,44.25,156.866,45,156.866,44.25
  L156.866,44.25z M156.866,47.25c0,0,0,0.75-0.75,0.75C156.116,48,156.866,48,156.866,47.25L156.866,47.25z M156.116,49.5
  L156.116,49.5L156.116,49.5z M155.366,53.25V54V53.25L155.366,53.25z M155.366,54.75C155.366,55.5,155.366,54,155.366,54.75
  L155.366,54.75z M155.366,56.25C155.366,55.5,155.366,56.25,155.366,56.25L155.366,56.25z M155.366,57
  C155.366,56.25,155.366,57,155.366,57L155.366,57z"/>
<path d="M156.866,48.75L156.866,48.75L156.866,48.75z"/>
<polygon points="157.616,51 157.616,51 157.616,51 157.616,51 157.616,51 "/>
<polygon points="156.116,57 156.116,57.75 156.116,57 "/>
<path d="M155.366,62.25c0,0.75,0,1.5-0.75,1.5c0.75,0,0.75,0,0.75,0l0,0C155.366,63,155.366,63,155.366,62.25L155.366,62.25z"/>
<path d="M156.116,48.75L156.116,48.75L156.116,48.75z"/>
<path d="M156.866,50.25L156.866,50.25L156.866,50.25z"/>
<path d="M157.616,57C157.616,56.25,157.616,57,157.616,57L157.616,57z"/>
<path d="M156.866,48v0.75l0,0C156.866,48,156.866,48,156.866,48L156.866,48z"/>
<path d="M156.866,50.25C156.866,51,157.616,50.25,156.866,50.25L156.866,50.25z"/>
<polygon points="156.866,51.75 156.866,51.75 156.866,51.75 "/>
<path d="M162.866,56.25C162.866,56.25,162.116,56.25,162.866,56.25L162.866,56.25z"/>
<path d="M157.616,50.25c0-0.75,0-1.5,0-1.5c0,0.75,0,0.75,0,0C157.616,49.5,156.866,49.5,157.616,50.25L157.616,50.25z"/>
<path d="M162.116,57.75L162.116,57.75c-0.75-0.75-0.75-0.75-0.75-0.75v0.75l0,0C161.366,57.75,161.366,57.75,162.116,57.75
  L162.116,57.75z"/>
<path d="M159.866,57.75C159.866,58.5,159.866,57,159.866,57.75L159.866,57.75z"/>
<path d="M157.616,51.75L157.616,51.75c0.75,0,0.75,0,0.75,0S158.366,51.75,157.616,51.75L157.616,51.75z"/>
<path d="M159.116,54L159.116,54L159.116,54z"/>
<path d="M159.866,57L159.866,57L159.866,57z"/>
<path fill-rule="evenodd" clip-rule="evenodd" d="M197.366,301.501C196.616,301.501,198.116,301.501,197.366,301.501
  L197.366,301.501z"/>
<path fill-rule="evenodd" clip-rule="evenodd" d="M198.116,302.251c0.75,0,0.75,0,0.75,0S198.116,301.501,198.116,302.251
  L198.116,302.251z"/>
<path fill-rule="evenodd" clip-rule="evenodd" d="M195.116,301.501c0.75,0,0.75,0,0.75,0c0-0.75,0-0.75,0-0.75
  C195.116,300.751,195.116,300.751,195.116,301.501L195.116,301.501z"/>
<path fill-rule="evenodd" clip-rule="evenodd" d="M183.866,300.751C182.366,300.751,183.116,300.751,183.866,300.751
  L183.866,300.751z"/>
<path fill-rule="evenodd" clip-rule="evenodd" d="M195.116,300.751C194.366,300.751,194.366,301.501,195.116,300.751
  L195.116,300.751z"/>
<polygon points="90.116,240.001 90.116,240.001 90.116,240.001 90.116,240.001 90.116,240.001 "/>
<path d="M85.616,238.501c0.75,0.75,0.75,0.75,0.75,0.75c-0.75,0,0,0,0,0l0,0l0,0c0.75,0,0-0.75,0.75-0.75c0,0,0,0-0.75,0l0,0
  C85.616,238.501,85.616,238.501,85.616,238.501L85.616,238.501z"/>
<polygon points="113.366,251.251 113.366,251.251 113.366,251.251 "/>
<path d="M113.366,251.251L113.366,251.251C113.366,251.251,112.616,251.251,113.366,251.251L113.366,251.251z"/>
<polygon points="95.366,237.751 95.366,237.751 95.366,237.751 "/>
<path d="M65.366,218.251c0.75,0.75,0.75,0.75,0.75,0.75S66.116,218.251,65.366,218.251L65.366,218.251z"/>
<rect x="84.116" y="237.001" fill-rule="evenodd" clip-rule="evenodd" width="0" height="0"/>
<polygon points="67.616,220.501 67.616,220.501 67.616,220.501 "/>
<path fill-rule="evenodd" clip-rule="evenodd" d="M117.866,257.251c-0.75-1.5-2.25-3.75-3.75-5.25c-0.75,0-0.75,0-0.75,0l0,0
  c0-0.75,0-0.75,0-0.75l0,0l0,0l0,0c-1.5,0-1.5,0-1.5,0s0,0,0.75,0l0,0v0.75c0,0-0.75-0.75-1.5-0.75c0.75,0,0.75,0,0.75,0
  c-0.75-0.75-1.5-0.75-1.5-0.75l0,0c0-0.75-0.75-0.75-1.5-0.75c0,0-0.75,0-1.5,0s-1.5-0.75-2.25-0.75h0.75c0-0.75-0.75,0-0.75-0.75
  c0.75,0.75,0.75,0,0.75,0l-0.75-0.75c0.75,0.75-0.75,0.75,0,0.75c-0.75,0-1.5,0-1.5-0.75l0,0c-0.75,0-0.75,0-0.75,0s0.75,0,0,0
  s-0.75-1.5-1.5-0.75c-0.75-0.75,0.75,0,0-0.75c0.75,0,0.75,0.75,1.5,0c-0.75,0,0,0,0,0c-0.75,0-0.75,0-0.75,0l0,0
  c-0.75,0-1.5-0.75-2.25-1.5c-0.75,0-1.5,0.75-2.25,0c0,0-0.75-0.75,0-0.75c-0.75-0.75-0.75-0.75-0.75,0l0,0h-0.75l0,0
  c0-0.75,0,0-0.75-0.75c0,0,0,0-0.75-0.75c0,0.75,0,0.75,0,0.75l-0.75-0.75h-0.75c0,0-0.75-0.75,0-0.75c-0.75-0.75-1.5,0-2.25-0.75
  v-0.75c0,0,0,0-0.75,0l0,0l0,0l0,0c0,0-0.75,0-1.5,0c0,0,0.75,0,0.75,0.75c0.75-0.75,0.75-0.75,0.75-0.75c-0.75,0.75,0,0.75,0,0.75
  c-0.75,0-1.5-0.75-2.25-0.75c0,0.75,0.75,1.5,1.5,1.5l0,0l0,0c0-0.75,0-0.75,0-0.75c0.75,0.75,0.75,0.75,0.75,0.75s0-0.75,0,0
  c0.75,0,0.75,0,0.75,0l0,0c0.75,0,0.75,0,0.75,0.75c0.75,0,0.75,0.75,1.5,0l0,0l0,0c0.75,0.75,0,0,0,0.75c0.75,0.75,1.5,0,1.5,0.75
  c0,0-0.75,0-1.5-0.75c0.75,0.75,0.75,0.75,0.75,0.75c-0.75,0-0.75-0.75-1.5-0.75c0.75,0,0,0,0-0.75c0,0.75,0,0.75-0.75,0.75
  c0.75,0,0.75,0,0.75,0.75c-0.75-0.75-0.75,0-1.5-0.75v-0.75h-0.75l0,0c-0.75,0-0.75-0.75-1.5-0.75l0.75,0.75
  c-0.75-0.75-0.75-1.5-1.5-2.25c0,0,0,0.75-0.75,0.75c0.75-0.75,0.75-0.75,0.75-0.75h-0.75h-0.75c0,0,0,0,0.75,0
  c0,0,0-0.75-0.75-0.75c0,0,0.75,0,1.5,0l0,0l0,0c0,0,0,0,0.75-0.75l0,0c0,0.75,0,0.75,0,0.75c0-0.75,0-0.75,0-0.75h-0.75
  c-1.5,0-1.5,0-1.5,0s0-0.75-0.75-0.75l0,0l0,0l0,0c-0.75-0.75-0.75-0.75-0.75-0.75c0,0.75,0,0.75-0.75,0.75
  c-0.75-0.75-0.75-0.75-0.75-0.75c0,0.75,0,0.75,0,0.75c0-0.75,0-0.75,0-0.75l0,0c-0.75,0-0.75,0-0.75,0
  c-0.75-0.75-2.25-0.75-3.75-1.5c-3-3.75-6.75-7.5-9.75-12l0,0c0,0,0,0,0-0.75c-0.75,0-0.75-0.75-1.5-1.5l0,0l0,0
  c0,0-0.75-0.75-0.75-1.5h-0.75c0-0.75,0-0.75,0-0.75l0,0c0-0.75-0.75-1.5-0.75-2.25c-4.5-0.75-9-1.5-13.5-1.5
  c-15,0.75-27.75,6-36.75,12.75c-0.75,0-1.5,0.75-2.25,0.75c-1.5,1.5-4.5,4.5-6.75,6.75c-3.75,4.5-6.75,9.75-6,14.25
  c0.75,3.75,3.75,3.75,6,6.75c18,0.75,40.5-3,52.5,3.75c14.25,11.25,11.25,36-6.75,40.5c-6,1.5-15.75,0.75-24,0.75
  s-18.75-0.75-23.25,2.25c-3.75,3-4.5,7.5-2.25,11.25c1.5,5.25,7.5,11.25,12,15c13.5,11.25,39,19.5,60.75,11.25
  c9-0.75,13.5-6.75,20.25-9.75c9.75-8.25,15.75-17.25,22.5-29.25c16.5,0,33.75,0,50.25,0c0,0,0,0,0-0.75c0,0,0,0,0.75,0
  s3,0,3.75-0.75c-0.75,0.75-2.25,1.5-3.75,1.5c1.5,0,2.25,0,3,0s0.75,0,1.5-0.75l0,0c0,0,0.75,0,0.75-0.75h0.75
  c-0.75,0-0.75,0.75-0.75,0.75c-0.75,0-0.75,0-0.75,0.75c0.75,0,1.5-0.75,2.25-0.75l0,0c-0.75,0.75-1.5,0.75-2.25,0.75
  c0.75,0,2.25,0,3,0h0.75l0,0l0,0l0,0c0.75-0.75,1.5,0,3,0l0,0c1.5,0,2.25,0,3.75,0c0.75-0.75,0.75-0.75,0.75-0.75s0,0.75,0,0
  c0,0.75,0.75,0.75,0.75,0.75c0.75,0,1.5,0,1.5,0l0,0h0.75l0,0c0.75,0,1.5,0,2.25,0l0,0h0.75l0,0c3,0,5.25,0,8.25,0
  c-0.75,0-1.5,0-2.25,0s-0.75-0.75-0.75-0.75c-0.75,0-3-0.75-3,0c-1.5-0.75-3,0-4.5-0.75c-0.75,0-0.75,0-0.75,0.75
  c0-0.75,0-0.75-0.75-0.75h0.75c-0.75,0-0.75,0-1.5,0l0,0c-0.75,0-2.25-0.75-3,0c-0.75,0-2.25,0-3,0l0,0c-0.75,0-0.75,0-0.75,0l0,0
  l0,0c-0.75,0-1.5,0-2.25,0l0,0c-0.75,0-0.75,0.75-1.5,0.75c-0.75-0.75,0-0.75,0.75-0.75c4.5,0,9,0,13.5,0c0.75,0,0.75,0,1.5,0l0,0
  h0.75c0.75,0,0.75,0,1.5,0c0,0,0,0,0.75,0c2.25,0,4.5,0.75,6.75,1.5c39,0,75.75,0,117,0c0-32.25,0-15,0-44.25
  C249.116,257.251,186.116,258.751,117.866,257.251L117.866,257.251z M174.866,301.501L174.866,301.501L174.866,301.501z
   M196.616,302.251L196.616,302.251L196.616,302.251z M193.616,302.251L193.616,302.251L193.616,302.251z M193.616,301.501
  C192.866,301.501,193.616,301.501,193.616,301.501L193.616,301.501z M190.616,301.501L190.616,301.501L190.616,301.501z
   M190.616,301.501C190.616,301.501,189.866,301.501,190.616,301.501L190.616,301.501z M189.116,301.501
  C189.116,301.501,188.366,301.501,189.116,301.501L189.116,301.501z M187.616,301.501L187.616,301.501h-0.75H187.616z
   M186.866,300.751C186.866,301.501,186.116,300.751,186.866,300.751L186.866,300.751z M186.866,301.501c0,0,0,0-0.75,0
  C186.116,301.501,186.116,301.501,186.866,301.501L186.866,301.501z M186.116,301.501
  C186.116,302.251,185.366,301.501,186.116,301.501L186.116,301.501z M185.366,301.501L185.366,301.501L185.366,301.501
  L185.366,301.501L185.366,301.501z M183.866,301.501L183.866,301.501C183.866,301.501,183.116,301.501,183.866,301.501
  L183.866,301.501z M183.116,301.501L183.116,301.501L183.116,301.501z M183.116,300.751c0,0.75-0.75,0.75-0.75,0.75
  C181.616,301.501,182.366,300.751,183.116,300.751L183.116,300.751z M181.616,301.501L181.616,301.501
  C182.366,302.251,181.616,302.251,181.616,301.501L181.616,301.501z M181.616,301.501c0,0.75-0.75,0-0.75,0.75
  C180.866,301.501,180.866,301.501,181.616,301.501L181.616,301.501z M180.866,300.751L180.866,300.751
  C180.116,300.751,180.116,300.751,180.866,300.751L180.866,300.751z M180.866,301.501L180.866,301.501c0,0-0.75,0-1.5,0
  C180.116,301.501,180.116,301.501,180.866,301.501L180.866,301.501z M179.366,301.501c0,0-0.75,0-1.5,0
  C177.866,301.501,178.616,301.501,179.366,301.501L179.366,301.501z M176.366,301.501c0.75,0,0.75,0,1.5,0c-0.75,0-1.5,0-2.25,0
  H176.366L176.366,301.501z M193.616,300.751C194.366,300.751,192.866,300.751,193.616,300.751L193.616,300.751z M136.616,279.001
  c15,0,15,0,15,0c0,6.75,0,6.75,0,6.75c-2.25,0-2.25,0-2.25,0c0,8.25,0,8.25,0,8.25c-0.75,0.75-1.5,0.75-2.25,0.75
  c-0.75,0.75-2.25,0.75-3,1.5c-1.5,0-2.25,0-3.75,0c-1.5,0.75-3,0.75-4.5,0.75c-3,0-5.25-0.75-7.5-0.75c-1.5-0.75-3.75-2.25-5.25-3
  c-0.75-1.5-2.25-3.75-3-5.25c-0.75-2.25-0.75-5.25-0.75-8.25s0-6,0.75-8.25s2.25-3.75,3-5.25c1.5-1.5,3.75-2.25,5.25-3
  c2.25-0.75,4.5-0.75,7.5-0.75c1.5,0,3,0,4.5,0c1.5,0.75,2.25,0.75,3.75,0.75c0.75,0.75,2.25,0.75,3,0.75
  c0.75,0.75,1.5,0.75,2.25,1.5c0,9.75,0,9.75,0,9.75c-10.5,0-10.5,0-10.5,0c0-1.5,0-1.5,0-1.5c0-1.5-0.75-2.25-0.75-3
  c-0.75,0-1.5-0.75-2.25-0.75c-1.5,0-2.25,0.75-3,0.75c0,0.75-0.75,1.5-0.75,3c0,12,0,12,0,12c0,1.5,0.75,2.25,0.75,3
  c0.75,0,1.5,0.75,3,0.75c0.75,0,1.5-0.75,2.25-0.75c0-0.75,0.75-1.5,0.75-3l0,0c-2.25,0-2.25,0-2.25,0V279.001z M167.366,289.501
  c3,0,3,0,3,0c0,6.75,0,6.75,0,6.75c-17.25,0-17.25,0-17.25,0c0-6.75,0-6.75,0-6.75c2.25,0,2.25,0,2.25,0c0-19.5,0-19.5,0-19.5
  c-2.25,0-2.25,0-2.25,0c0-6.75,0-6.75,0-6.75c19.5,0,19.5,0,19.5,0c2.25,0,3.75,0,5.25,0.75c1.5,0,2.25,0.75,3,1.5
  c1.5,0.75,2.25,1.5,2.25,3c0.75,0.75,1.5,2.25,1.5,4.5c0,1.5-0.75,3-1.5,4.5s-1.5,2.25-3,3c0,0.75,0,0.75,0,0.75
  c2.25,0,3.75,1.5,3.75,4.5c0,3.75,0,3.75,0,3.75c2.25,0,2.25,0,2.25,0c0,6.75,0,6.75,0,6.75c-13.5,0-13.5,0-13.5,0
  c0-9.75,0-9.75,0-9.75c0-0.75,0-1.5-0.75-2.25c0-0.75,0-0.75-0.75-1.5c0,0-0.75,0-1.5,0c-0.75-0.75-1.5-0.75-2.25-0.75V289.501z
   M169.616,276.751c0.75,0,1.5,0,2.25,0c0-0.75,0.75-1.5,0.75-2.25c0-1.5,0-1.5,0-1.5c0-0.75-0.75-1.5-0.75-2.25
  c-0.75-0.75-1.5-0.75-2.25-0.75c-2.25,0-2.25,0-2.25,0c0,6.75,0,6.75,0,6.75H169.616z M219.116,279.751c0,3-0.75,6-1.5,8.25
  c-0.75,1.5-1.5,3.75-3,5.25c-1.5,0.75-3,2.25-5.25,3c-2.25,0-4.5,0.75-6.75,0.75s-4.5-0.75-6.75-0.75c-2.25-0.75-3.75-2.25-5.25-3
  c-1.5-1.5-2.25-3.75-3-5.25c-0.75-2.25-1.5-5.25-1.5-8.25s0.75-6,1.5-8.25s1.5-3.75,3-5.25s3-2.25,5.25-3s4.5-0.75,6.75-0.75
  s4.5,0,6.75,0.75s3.75,1.5,5.25,3s2.25,3,3,5.25S219.116,276.751,219.116,279.751L219.116,279.751z M202.616,289.501
  c0.75,0,1.5-0.75,2.25-0.75c0.75-0.75,0.75-1.5,0.75-2.25c0-13.5,0-13.5,0-13.5c0-0.75,0-1.5-0.75-2.25c-0.75,0-1.5-0.75-2.25-0.75
  s-1.5,0.75-2.25,0.75c-0.75,0.75-0.75,1.5-0.75,2.25c0,13.5,0,13.5,0,13.5c0,0.75,0,1.5,0.75,2.25
  C201.116,288.751,201.866,289.501,202.616,289.501L202.616,289.501z M240.116,270.001h-5.25v6.75h3.75v5.25h-3.75v7.5h5.25v-6.75h9
  v13.5h-29.25v-6.75h3v-19.5h-3v-6.75h29.25v12.75h-9V270.001L240.116,270.001z M270.115,296.251c-18.75,0-18.75,0-18.75,0
  c0-6.75,0-6.75,0-6.75c3,0,3,0,3,0c0-19.5,0-19.5,0-19.5c-3,0-3,0-3,0c0-6.75,0-6.75,0-6.75c19.5,0,19.5,0,19.5,0
  c1.5,0,3,0,4.5,0.75c1.5,0,2.25,0.75,3.75,1.5c0.75,0.75,1.5,1.5,2.25,3c0,1.5,0.75,3,0.75,4.5c0,2.25-0.75,3.75-0.75,4.5
  c-0.75,1.5-1.5,2.25-2.25,3.75c-1.5,0.75-2.25,0.75-3.75,1.5c-1.5,0-3,0.75-4.5,0.75c-4.5,0-4.5,0-4.5,0c0,6,0,6,0,6
  c3.75,0,3.75,0,3.75,0V296.251z M267.115,276.751c1.5,0,1.5,0,2.25,0c0-0.75,0.75-1.5,0.75-2.25c0-1.5,0-1.5,0-1.5
  c0-0.75-0.75-1.5-0.75-2.25c-0.75-0.75-0.75-0.75-2.25-0.75c-0.75,0-0.75,0-0.75,0c0,6.75,0,6.75,0,6.75H267.115z M295.615,288.751
  c0.75,0,1.5,0,2.25-0.75l0.75-0.75c0-0.75-0.75-0.75-0.75-1.5c0,0-0.75-0.75-2.25-0.75c-1.5-0.75-3.75-1.5-5.25-2.25
  s-3-1.5-3.75-2.25c-1.5-1.5-2.25-2.25-2.25-3.75c-0.75-0.75-0.75-2.25-0.75-3.75s0-3,0.75-4.5c0-1.5,0.75-2.25,2.25-3
  c0.75-0.75,2.25-1.5,4.5-2.25c1.5-0.75,3.75-0.75,6.75-0.75c2.25,0,4.5,0,6.75,0.75s4.5,1.5,6,2.25c0,7.5,0,7.5,0,7.5c-9,0-9,0-9,0
  c0-0.75-0.75-1.5-0.75-1.5c-0.75-0.75-1.5-0.75-1.5-0.75c-1.5,0-2.25,0-2.25,0.75c-0.75,0-0.75,0-0.75,0.75s0,0.75,0.75,1.5
  c0.75,0,0.75,0,2.25,0.75c1.5,0,3,0.75,4.5,1.5s2.25,1.5,3.75,2.25c0.75,0.75,2.25,1.5,2.25,3c0.75,1.5,1.5,3,1.5,4.5
  c0,3.75-1.5,6.75-3.75,8.25c-2.25,2.25-6,3-10.5,3c-3,0-5.25,0-7.5-0.75s-4.5-0.75-6-1.5c0-8.25,0-8.25,0-8.25c9.75,0,9.75,0,9.75,0
  c0,0.75,0,1.5,0,1.5C294.115,288.751,294.865,288.751,295.615,288.751L295.615,288.751z"/>
<g>
  <path d="M342.115,289.501h2.25l-0.75-3.75h-6l-0.75,3.75h3v6.75h-15v-6.75h2.25l6.75-26.25h15.75l7.5,26.25h1.5v6.75h-16.5V289.501
    L342.115,289.501z M339.115,281.251h3.75l-2.25-8.25l0,0L339.115,281.251L339.115,281.251z"/>
  <path d="M360.115,263.251c17.25,0,17.25,0,17.25,0c2.25,0,4.5,0,6.75,0.75c1.5,0.75,3,1.5,4.5,3c1.5,0.75,2.25,3,3,5.25
    c1.5,1.5,1.5,4.5,1.5,7.5s0,6-1.5,7.5c-0.75,2.25-1.5,3.75-3,5.25s-3,2.25-4.5,3c-2.25,0.75-4.5,0.75-6.75,0.75
    c-17.25,0-17.25,0-17.25,0c0-6.75,0-6.75,0-6.75c2.25,0,2.25,0,2.25,0c0-19.5,0-19.5,0-19.5c-2.25,0-2.25,0-2.25,0V263.251z
     M376.615,289.501c1.5,0,2.25-0.75,2.25-0.75c0.75-0.75,0.75-1.5,0.75-2.25c0-13.5,0-13.5,0-13.5c0-0.75,0-1.5-0.75-2.25
    c0,0-0.75-0.75-2.25-0.75c-2.25,0-2.25,0-2.25,0c0,19.5,0,19.5,0,19.5H376.615z"/>
  <polygon points="394.615,263.251 414.865,263.251 419.365,277.501 424.615,263.251 444.115,263.251 444.115,270.001
    441.115,270.001 441.115,289.501 444.115,289.501 444.115,296.251 426.865,296.251 426.865,289.501 429.865,289.501
    429.865,272.251 420.865,296.251 416.365,296.251 406.615,272.251 406.615,289.501 409.615,289.501 409.615,296.251
    394.615,296.251 394.615,289.501 396.865,289.501 396.865,270.001 394.615,270.001 394.615,263.251   "/>
  <polygon points="445.615,263.251 462.865,263.251 462.865,270.001 459.865,270.001 459.865,289.501 462.865,289.501
    462.865,296.251 445.615,296.251 445.615,289.501 448.615,289.501 448.615,270.001 445.615,270.001 445.615,263.251   "/>
  <polygon points="488.365,263.251 503.365,263.251 503.365,270.001 501.115,270.001 501.115,296.251 489.115,296.251
    476.365,276.751 476.365,289.501 479.365,289.501 479.365,296.251 464.365,296.251 464.365,289.501 466.615,289.501
    466.615,270.001 464.365,270.001 464.365,263.251 480.115,263.251 491.365,280.501 491.365,270.001 488.365,270.001
    488.365,263.251   "/>
</g>
</svg>
